# xmcd
#
# Track frame offsets: 
#        150
#        25392
#        41275
#        55003
#        89050
#        116190
#        139701
#        164392
#        176990
#        202161
#        247400
#
# Disc length: 4440 seconds
#
# Revision: 3
# Processed by: cddbd v1.5.2PL0 Copyright (c) Steve Scherf et al.
# Submitted via: ExactAudioCopyFreeDBPlugin 1.0
#
DISCID=a811560b
DTITLE=Various Artist - Feelin' Blue - CD1
DYEAR=2006
DGENRE=Jazz
TTITLE0=Cannonball Adderley - I Guess I'll Hang My Tears Out To Dry
TTITLE1=Louis Armstrong and Duke Ellington - Don't Get Around Much Anymo
TTITLE1=re
TTITLE2=Chet Baker - Someone To Watch Over Me
TTITLE3=Tina Brooks - Stranger In Paradise
TTITLE4=Sonny Criss - These Foolish Things
TTITLE5=Kenny Burrell - My Heart Stood Still
TTITLE6=Stanley Turrentine - Without A Song
TTITLE7=The Three Sounds - It Was A Very Good Year
TTITLE8=Freddie Hubbard - All Or Nothing At All
TTITLE9=Jacky Terrasson - I Love Paris
TTITLE10=Data
EXTD=Blue Note 60616
EXTT0=
EXTT1=
EXTT2=
EXTT3=
EXTT4=
EXTT5=
EXTT6=
EXTT7=
EXTT8=
EXTT9=
EXTT10=
PLAYORDER=
